# xmcd
#
# Track frame offsets:
#	150
#	15196
#	34322
#	49901
#	66020
#	81711
#	101151
#	118057
#	135655
#	157273
#	176106
#	193373
#	208763
#	225734
#	246188
#
# Disc length: 3455
#
# Revision: 2
# Processed by: cddbd v1.5.1PL0 Copyright (c) Steve Scherf et al.
# Submitted via: audiograbber 1.83.01
# Normalized: r1:DSETVAR1
#
DISCID=e20d7d0f
DTITLE=Various Artist - Wedding Favorites - Karaoke (vol 2.)
DYEAR=1900
DGENRE=Country Karaoke
TTITLE0=Collin Raye - In This Life (karaoke)
TTITLE1=Tracy Byrd - The Keeper Of The Stars (karaoke)
TTITLE2=Martina McBride - Valentine (karaoke)
TTITLE3=Billy Dean - If There Hadn't Been You (karaoke)
TTITLE4=Trace Adkins - The Rest Of Mine (karaoke)
TTITLE5=Tanya Tucker - Two Sparrows In A Hurricane (karaoke)
TTITLE6=George Strait - I Cross My Heart (karaoke)
TTITLE7=Tim McGraw and Faith Hill - It's Your Love (karaoke)
TTITLE8=Bette Midler - Wind Beneath My Wings (karaoke)
TTITLE9=John Michael Montgomery - I Love The Way You Love Me (karaoke)
TTITLE10=Eddie Rabbit and Crystal Gayle - Just You And I (karaoke)
TTITLE11=Terri Clark - Just The Same (karaoke)
TTITLE12=Michael Peterson - From Here To Eternity (karaoke)
TTITLE13=John Michael Montgomery - I Swear (karaoke)
TTITLE14=Dolly Parton - I Will Always Love You (karaoke)
EXTD=
EXTT0=
EXTT1=
EXTT2=
EXTT3=
EXTT4=
EXTT5=
EXTT6=
EXTT7=
EXTT8=
EXTT9=
EXTT10=
EXTT11=
EXTT12=
EXTT13=
EXTT14=
PLAYORDER=
